<svg width="474" height="367" viewBox="0 0 474 367" fill="none" xmlns="http://www.w3.org/2000/svg">
<g clip-path="url(#clip0)">
<path opacity="0.1" d="M468.976 340.501C467.136 346.943 464.871 353.123 462.212 358.96C460.964 361.743 459.596 364.413 458.115 366.955C458.102 366.981 458.086 367.004 458.069 367.025H0L0.0618259 366.955C0.474 366.499 2.89346 363.72 6.65661 358.96C9.35635 355.55 12.7444 351.116 16.5488 345.782C47.6638 302.356 107.433 199.565 57.6549 105.401C11.3801 17.8634 61.2037 1.97832 94.0704 0.124285C106.698 -0.577677 119.296 2.3446 131.108 8.71603C146.293 16.9042 174.045 29.4555 210.2 35.2106C211.388 35.3978 212.583 35.585 213.795 35.7546C232.937 38.5202 252.208 39.0171 271.408 37.2401C271.973 37.1933 272.542 37.1349 273.115 37.0764C292.109 35.1838 310.958 31.0461 329.467 24.7064C330.667 24.2911 331.849 23.8993 333.028 23.5074C394.702 3.25919 451.557 72.268 437.341 150.255C432.086 179.1 433.422 209.847 450.943 234.722C479.63 275.323 476.156 315.311 468.976 340.501Z" fill="#868B8E"/>
<path d="M468.976 340.5C467.136 346.941 464.871 353.121 462.212 358.958C460.964 361.741 459.596 364.411 458.115 366.953H0.0617676C0.473942 366.497 2.8934 363.719 6.65655 358.958C9.35629 355.548 12.7444 351.115 16.5487 345.781L64.8267 331.627C65.4505 331.444 66.0857 331.352 66.7227 331.352L118.191 331.247H118.244L143.737 331.2H143.795L165.311 331.165H179.395H193.821L252.935 331.048H253.029H257.609H265.654H275.699H278.37L288.522 330.884H291.877L321.405 330.826H330.835H335.369L369.477 330.761H379.633L411.939 330.697L439.208 330.65C439.968 330.651 440.725 330.779 441.463 331.031L468.976 340.5Z" fill="#454B69"/>
<path opacity="0.4" d="M6.65655 358.958H462.212C460.964 361.741 459.596 364.411 458.115 366.953H0.0617676C0.465698 366.468 2.88516 363.69 6.65655 358.958Z" fill="black"/>
<path opacity="0.1" d="M301.299 175.59V177.315L259.933 188.591C247.918 191.867 235.731 195.159 223.526 193.902C214.685 192.989 206.425 189.27 197.93 186.006C193.128 184.158 188.038 183.421 186.41 175.794C184.163 165.267 187.819 149.68 188.681 139.012C189.505 128.543 202.196 90.3214 200.729 79.9751L276.569 84.6541C277.08 90.3682 297.124 119.05 295.875 124.53C293.245 136.093 286.807 147.791 290.104 159.003C292.207 166.132 297.565 169.94 301.299 175.59Z" fill="black"/>
<path d="M223.81 146.65C224.26 150.271 224.499 154.254 223.196 157.412C221.461 161.646 217.677 162.997 214.293 163.957L202.546 167.29C201.747 167.518 200.898 167.776 200.3 168.554C199.595 169.449 199.356 170.864 199.253 172.197C198.779 178.233 200.283 184.181 201.656 189.931C204.43 201.575 206.759 213.466 210.266 224.701C213.774 235.937 218.588 246.663 225.459 254.173C232.33 261.683 241.423 265.683 249.835 262.747C257.163 260.191 263.173 252.851 268.354 245.066C272.628 238.633 276.626 231.614 278.7 223.268C280.13 217.537 280.596 211.43 281.045 205.383C281.74 196.111 282.435 186.839 283.13 177.566C283.456 173.215 283.67 168.32 281.68 164.98C280.806 163.512 279.619 162.535 278.407 161.629C273.898 158.231 269.149 155.423 264.954 151.329C260.758 147.235 257.036 141.597 255.762 134.602C255 130.403 255.136 125.829 253.837 121.916C252.386 117.53 249.303 114.558 246.006 113.254C242.708 111.95 239.23 112.125 235.833 112.669C232.437 113.213 219.346 114.605 217.941 120.039C217.187 122.963 220.315 129.239 221.057 132.116C222.278 136.835 223.2 141.699 223.81 146.65Z" fill="#EFB7B9"/>
<path d="M252.082 210.249L258.969 189.556C262.196 179.859 265.494 169.671 265.152 158.962C265.086 156.833 265.069 154.172 266.388 153.207C266.961 152.875 267.585 152.762 268.198 152.879C275.448 153.405 282.604 155.459 289.429 158.974C290.752 159.652 292.108 160.436 293.035 161.933C293.963 163.43 294.338 165.442 294.655 167.372C295.736 173.898 296.525 180.514 297.017 187.182C298.253 203.687 297.639 220.338 297.017 236.896L295.187 287.446C295.197 288.163 295.094 288.874 294.886 289.528C294.432 290.698 293.41 291.09 292.491 291.312C288.951 292.172 285.332 291.996 281.746 291.803C256.521 290.446 231.164 288.364 206.104 292.704C206.216 287.444 206.157 282.18 205.926 276.912C204.933 254.167 200.778 231.977 196.698 209.939C194.32 197.072 192.015 183.035 195.845 170.911C196.408 168.996 197.217 167.247 198.231 165.752C199.859 163.489 202.081 162.296 204.282 161.442C208.078 159.976 212.011 159.345 215.942 159.57L241.93 239.855C243.117 243.528 244.094 247.394 245.277 251.02C246.34 244.756 245.062 237.416 246.34 230.626C247.717 223.578 249.885 216.835 252.082 210.249Z" fill="#7B8083"/>
<path d="M249.365 265.49C254.014 265.905 258.532 262.525 261.73 257.746C264.929 252.968 267.039 246.909 268.824 240.785C271.389 232.056 273.429 223.035 274.92 213.817C276.156 205.979 277.034 197.867 276.181 189.925C275.002 178.958 270.629 168.992 269.883 157.95C269.755 156.02 269.838 153.762 270.93 152.598C271.606 151.879 272.496 151.78 273.337 151.709C281.111 151.054 289.651 151.177 295.673 158.178C297.507 160.307 298.995 162.968 300.788 165.161C305.058 170.425 311.092 173.104 313.833 180.093C314.789 182.526 315.247 185.281 315.915 187.901C317.489 194.101 320.214 199.552 322.922 204.915C320.296 220.636 317.279 236.369 314.653 252.091C313.116 261.314 311.566 270.572 309.151 279.404C307.568 285.194 305.577 291.101 306.064 297.301C306.257 299.74 306.83 302.074 307.329 304.425C309.077 312.677 309.897 321.269 309.757 329.884L192.147 330.294C197.782 318.83 199.434 304.77 198.861 290.821C198.585 284.136 197.522 277.41 195.152 271.625C191.418 262.56 184.848 256.653 178.372 251.593C173.838 248.084 168.971 267.829 164.07 265.566C164.861 257.623 165.224 226.965 164.894 218.969C164.787 216.349 164.622 213.659 165.191 211.156C165.578 209.442 166.291 207.91 166.774 206.243C168.707 199.569 166.864 191.036 169.989 185.357C172.148 181.409 175.936 180.286 179.015 177.853C182.177 175.35 184.621 171.419 187.374 168.062C192.777 161.553 199.378 157.37 206.4 156.008C208.449 160.593 209.694 165.807 210.031 171.215C210.242 174.613 210.089 178.058 210.423 181.438C210.88 186.018 212.216 190.317 213.539 194.551C219.05 212.208 224.581 229.918 231.563 246.499C233.538 251.178 235.685 255.857 238.546 259.501C241.406 263.145 245.524 265.747 249.365 265.49Z" fill="#868B8E"/>
<path opacity="0.1" d="M249.365 265.49C254.014 265.905 258.532 262.525 261.73 257.746C264.929 252.968 267.039 246.909 268.824 240.785C271.389 232.056 273.429 223.035 274.92 213.817C276.156 205.979 277.034 197.867 276.181 189.925C275.002 178.958 270.629 168.992 269.883 157.95C269.755 156.02 269.838 153.762 270.93 152.598C271.606 151.879 272.496 151.78 273.337 151.709C281.111 151.054 289.651 151.177 295.673 158.178C297.507 160.307 298.995 162.968 300.788 165.161C305.058 170.425 311.092 173.104 313.833 180.093C314.789 182.526 315.247 185.281 315.915 187.901C317.489 194.101 320.214 199.552 322.922 204.915C320.296 220.636 317.279 236.369 314.653 252.091C313.116 261.314 311.566 270.572 309.151 279.404C307.568 285.194 305.577 291.101 306.064 297.301C306.257 299.74 306.83 302.074 307.329 304.425C309.077 312.677 309.897 321.269 309.757 329.884L192.147 330.294C197.782 318.83 199.434 304.77 198.861 290.821C198.585 284.136 197.522 277.41 195.152 271.625C191.418 262.56 184.848 256.653 178.372 251.593C173.838 248.084 168.971 267.829 164.07 265.566C164.861 257.623 165.224 226.965 164.894 218.969C164.787 216.349 164.622 213.659 165.191 211.156C165.578 209.442 166.291 207.91 166.774 206.243C168.707 199.569 166.864 191.036 169.989 185.357C172.148 181.409 175.936 180.286 179.015 177.853C182.177 175.35 184.621 171.419 187.374 168.062C192.777 161.553 199.378 157.37 206.4 156.008C208.449 160.593 209.694 165.807 210.031 171.215C210.242 174.613 210.089 178.058 210.423 181.438C210.88 186.018 212.216 190.317 213.539 194.551C219.05 212.208 224.581 229.918 231.563 246.499C233.538 251.178 235.685 255.857 238.546 259.501C241.406 263.145 245.524 265.747 249.365 265.49Z" fill="black"/>
<path d="M243.145 145.323C262.659 145.323 278.477 122.876 278.477 95.1876C278.477 67.4987 262.659 45.0525 243.145 45.0525C223.632 45.0525 207.814 67.4987 207.814 95.1876C207.814 122.876 223.632 145.323 243.145 145.323Z" fill="#FFB8B8"/>
<g opacity="0.1">
<path opacity="0.1" d="M200.638 149.785C200.654 148.136 200.654 146.471 200.638 144.79C200.514 129.683 200.382 114.436 197.967 99.7203C197.428 96.8567 197.006 93.9508 196.706 91.0175C196.621 92.0246 196.584 93.0387 196.595 94.0529C196.644 97.761 197.374 101.37 197.967 104.984C200.37 119.612 200.518 134.766 200.638 149.785Z" fill="black"/>
<path opacity="0.1" d="M286.824 110.137C287.365 106.72 287.545 103.207 287.359 99.7145C287.279 101.452 287.099 103.177 286.824 104.873C285.777 111.307 283.316 117.103 282.401 123.554C282.007 126.399 281.896 129.309 282.071 132.198C282.137 131.064 282.247 129.935 282.401 128.818C283.316 122.367 285.777 116.547 286.824 110.137Z" fill="black"/>
<path opacity="0.1" d="M273.008 95.9421C273.209 95.1113 273.317 94.2411 273.329 93.3628C273.329 91.1344 272.604 89.0464 271.882 87.0696C267.472 74.9511 261.99 61.9904 252.807 57.8846C250.293 56.7616 247.511 56.3054 245.462 53.9484C244.935 53.3042 244.504 52.5171 244.194 51.6333C243.884 50.7495 243.701 49.7868 243.657 48.8015C239.189 60.4405 231.514 69.3422 223.196 75.5944C219.899 78.0801 216.325 80.367 214.075 84.6014C211.961 88.5785 211.346 93.7546 211.713 98.7611C211.921 95.548 212.737 92.4744 214.075 89.8653C216.325 85.6308 219.895 83.344 223.196 80.8583C231.514 74.606 239.189 65.7043 243.657 54.0654C243.701 55.0506 243.884 56.0133 244.194 56.8971C244.504 57.7809 244.935 58.568 245.462 59.2122C247.523 61.5517 250.293 62.0255 252.807 63.1484C261.974 67.2425 267.472 80.2149 271.882 92.3334C272.329 93.4884 272.706 94.6957 273.008 95.9421Z" fill="black"/>
<path opacity="0.1" d="M275.435 157.628C271.478 152.364 269.298 144.995 267.641 137.673C266.647 133.559 265.983 129.3 265.663 124.975C265.279 130.982 266.33 137.129 267.641 142.936C269.29 150.259 271.478 157.64 275.435 162.892C279.392 168.144 285.529 170.753 290.397 167.361C289.812 165.939 289.231 164.495 288.654 163.038C284.132 164.846 278.939 162.272 275.435 157.628Z" fill="black"/>
<path opacity="0.1" d="M224.606 156.733C223.81 165.758 219.919 176.677 213.584 180.245C209.186 182.719 202.925 179.877 198.148 178.303C197.737 179.945 197.267 181.556 196.739 183.129C201.635 184.509 208.737 188.235 213.584 185.509C219.919 181.941 223.81 171.022 224.606 161.997C224.77 159.739 224.8 157.466 224.697 155.201C224.672 155.71 224.635 156.225 224.606 156.733Z" fill="black"/>
</g>
<path d="M274.549 301.746C268.181 300.313 261.718 297.547 255.404 299.407C251.743 300.483 248.397 303.068 245.355 306.191C247.028 308.092 248.982 309.788 250.045 312.432C250.705 314.261 251.201 316.2 251.521 318.204C252.189 321.714 252.86 325.293 252.963 328.943C253.067 332.592 252.551 336.394 251.018 339.336C259.047 340.459 266.829 337.651 274.66 334.908C275.556 334.685 276.408 334.197 277.162 333.475C278.399 332.095 278.761 329.639 278.77 327.398C278.77 323.398 277.978 319.497 277.175 315.66C276.218 311.057 275.509 306.32 274.549 301.746Z" fill="#7B8083"/>
<path d="M317.547 203.096C320.708 203.681 323.161 207.301 324.966 211.021C330.032 221.373 332.216 233.925 334.648 246.049C337.671 261.127 341.225 275.967 345.311 290.569C346.191 293.941 347.26 297.208 348.509 300.337C349.528 302.752 350.764 305.074 351.213 307.817C352.301 314.449 348.448 320.684 344.429 324.381C342.287 326.429 339.948 328.029 337.484 329.13C335.085 330.147 332.583 330.533 330.098 330.919L307.218 334.429C296.687 336.055 286.061 337.68 275.526 336.113C274.862 332.838 276.165 330.522 276.07 327.112C276.004 324.673 275.246 322.404 274.57 320.158C273.323 316.158 272.5 311.919 272.125 307.577C272.006 305.981 271.965 304.343 271.536 302.857C271.107 301.372 270.188 300.038 269.063 299.933C275.246 299.062 279.94 297.406 286.123 296.529C288.419 296.202 290.805 295.833 292.763 294.102C295.191 291.955 296.551 288.084 297.631 284.329C300.306 275.029 302.029 264.782 300.623 254.933C299.469 246.856 296.25 239.335 296.266 231.094C296.266 226.187 297.445 221.432 298.838 216.94C300.314 212.191 302.239 207.336 305.479 204.927C308.718 202.517 313.891 202.394 317.547 203.096Z" fill="#868B8E"/>
<path opacity="0.08" d="M317.547 203.096C320.708 203.681 323.161 207.301 324.966 211.021C330.032 221.373 332.216 233.925 334.648 246.049C337.671 261.127 341.225 275.967 345.311 290.569C346.191 293.941 347.26 297.208 348.509 300.337C349.528 302.752 350.764 305.074 351.213 307.817C352.301 314.449 348.448 320.684 344.429 324.381C342.287 326.429 339.948 328.029 337.484 329.13C335.085 330.147 332.583 330.533 330.098 330.919L307.218 334.429C296.687 336.055 286.061 337.68 275.526 336.113C274.862 332.838 276.165 330.522 276.07 327.112C276.004 324.673 275.246 322.404 274.57 320.158C273.323 316.158 272.5 311.919 272.125 307.577C272.006 305.981 271.965 304.343 271.536 302.857C271.107 301.372 270.188 300.038 269.063 299.933C275.246 299.062 279.94 297.406 286.123 296.529C288.419 296.202 290.805 295.833 292.763 294.102C295.191 291.955 296.551 288.084 297.631 284.329C300.306 275.029 302.029 264.782 300.623 254.933C299.469 246.856 296.25 239.335 296.266 231.094C296.266 226.187 297.445 221.432 298.838 216.94C300.314 212.191 302.239 207.336 305.479 204.927C308.718 202.517 313.891 202.394 317.547 203.096Z" fill="black"/>
<path d="M174.271 195.499C175.768 190.457 177.288 185.252 177.33 179.783C177.375 173.87 175.681 168.255 174.387 162.641C172.786 155.771 171.721 148.673 171.209 141.474C171.103 140.785 171.176 140.064 171.415 139.445C171.757 138.76 172.417 138.62 172.998 138.439C175.85 137.515 178.006 134.245 179.786 130.952C182.549 125.867 184.881 120.339 186.735 114.482C188.1 110.172 189.946 104.914 193.277 104.873C191.936 113.809 190.274 122.643 188.298 131.338C191.78 130.075 195.09 128.239 198.573 126.975C199.255 126.67 199.969 126.535 200.683 126.578C202.769 126.888 204.047 130.894 202.835 133.321C204.537 136.152 207.369 136.912 209.595 138.854C211.82 140.796 213.42 145.603 211.441 148.042C211.054 148.516 210.563 148.849 210.283 149.458C209.327 151.552 211.668 153.955 211.474 156.435C211.318 158.465 209.483 159.412 208.094 158.874C206.705 158.336 205.621 156.862 204.385 155.78C203.148 154.698 201.533 154.026 200.333 155.148C200.012 160.652 199.665 166.261 197.988 171.273C197.374 173.104 196.586 174.818 196.092 176.718C195.619 178.791 195.325 180.938 195.218 183.111L193.722 202.523C186.583 204.552 180.182 201.517 174.271 195.499Z" fill="#FFB8B8"/>
<path d="M172.528 212.898L171.213 200.271C171.087 199.243 171.017 198.203 171.003 197.16C171.003 194.235 171.909 191.445 172.787 188.784C180.062 193.604 187.927 195.317 195.952 195.323C197.011 195.323 198.219 195.183 198.878 194.007C200.242 196.236 200.284 199.821 199.702 202.652C199.121 205.482 198.004 208.032 197.262 210.793C196.887 212.191 196.582 213.717 195.865 214.793C194.752 216.495 192.947 216.788 191.306 216.776C189.581 216.761 187.859 216.528 186.162 216.08C181.769 214.922 176.922 211.781 172.528 212.898Z" fill="#7B8083"/>
<path d="M199.661 212.384C194.014 211.471 188.405 210.185 182.832 208.524C180.099 207.711 177.342 206.804 174.556 206.962C172.742 207.067 170.793 207.582 169.197 206.307C170.751 213.811 170.846 221.718 168.987 229.082C167.887 233.468 166.209 237.557 165.401 242.072C163.72 251.517 166.028 261.817 163.926 271.093C163.703 272.305 163.266 273.417 162.656 274.322C162.013 275.158 161.135 275.591 160.542 276.497C159.668 277.831 159.614 279.837 159.61 281.656L159.573 297.769C159.548 308.028 159.643 318.906 163.46 327.597C167.813 337.54 176.975 342.693 184.951 339.669C187.071 338.9 189.058 337.52 190.787 335.616C193.557 332.493 195.321 327.978 197.048 323.579C199.109 318.315 201.17 312.935 201.833 307.01C202.303 302.816 202.039 298.535 201.701 294.318C199.838 270.923 195.795 247.727 196.665 224.245C196.795 219.952 197.84 215.816 199.661 212.384Z" fill="#797D80"/>
<path d="M223.262 309.472C220.398 309.706 217.512 309.94 214.66 309.472C212.599 309.121 210.588 308.402 208.544 307.911C202.96 306.631 197.248 307.081 191.799 309.229C186.35 311.378 181.293 315.174 176.975 320.357C175.392 322.275 173.793 325.217 174.667 327.901C175.607 330.791 178.48 330.709 180.693 330.171C178.304 331.79 176.194 334.131 174.51 337.031C173.892 338.102 173.307 339.371 173.426 340.757C173.678 343.652 176.448 344.178 178.496 343.927C177.828 344.945 178.278 346.746 179.127 347.436C179.976 348.126 181.031 347.986 181.991 347.734C184.114 347.183 186.166 346.175 188.075 344.746C187.687 346.179 188.359 347.857 189.311 348.571C190.264 349.284 191.422 349.232 192.489 348.986C197.526 347.816 201.73 342.845 206.643 340.891C214.499 337.774 222.718 342.745 230.883 343.096C233.439 343.207 236.06 342.839 238.389 341.342C241.245 339.499 243.549 336.043 246.567 334.815C249.918 333.458 253.763 335.019 256.83 332.674C259.06 330.972 257.048 317.853 256.479 315.327C255.437 310.706 254.39 307.642 250.915 307.174C242.123 305.951 232.12 308.747 223.262 309.472Z" fill="#FFB8B8"/>
<path d="M245.194 305.893C245.194 305.893 258.503 321.877 250.825 339.318L265.663 332.048V316.789C265.663 316.064 260.028 305.168 260.028 305.168L253.372 303.711L245.194 305.893Z" fill="#7B8083"/>
<path d="M266.827 153.934C266.827 153.934 239.772 180.928 216.214 160.155L230.529 206.851L250.368 205.771C251.311 205.72 264.829 188.801 264.829 188.801L265.956 169.621L266.827 153.934Z" fill="#7B8083"/>
<path d="M270.016 187.724C270.016 187.724 243.281 222.665 219.447 195.025L234.355 256.501L254.194 255.422C255.137 255.37 268.453 233.413 268.453 233.413L269.341 208.281L270.016 187.724Z" fill="#7B8083"/>
<path d="M105.842 304.904H110.834C113.566 304.904 116.187 306.445 118.12 309.187C120.052 311.929 121.138 315.648 121.138 319.526V341.231H95.5378V319.526C95.5378 317.606 95.8044 315.705 96.3222 313.931C96.8401 312.157 97.5991 310.545 98.5559 309.187C99.5128 307.829 100.649 306.752 101.899 306.017C103.149 305.283 104.489 304.904 105.842 304.904Z" fill="#3F3D56"/>
<path opacity="0.1" d="M105.842 304.904H110.834C113.566 304.904 116.187 306.445 118.12 309.187C120.052 311.929 121.138 315.648 121.138 319.526V341.231H95.5378V319.526C95.5378 317.606 95.8044 315.705 96.3222 313.931C96.8401 312.157 97.5991 310.545 98.5559 309.187C99.5128 307.829 100.649 306.752 101.899 306.017C103.149 305.283 104.489 304.904 105.842 304.904Z" fill="black"/>
<path d="M107.314 312.894C108.445 312.894 109.362 311.592 109.362 309.987C109.362 308.381 108.445 307.08 107.314 307.08C106.182 307.08 105.265 308.381 105.265 309.987C105.265 311.592 106.182 312.894 107.314 312.894Z" fill="#3F3D56"/>
<path d="M107.314 309.262C108.445 309.262 109.362 307.96 109.362 306.355C109.362 304.749 108.445 303.448 107.314 303.448C106.182 303.448 105.265 304.749 105.265 306.355C105.265 307.96 106.182 309.262 107.314 309.262Z" fill="#3F3D56"/>
<path d="M107.314 305.63C108.445 305.63 109.362 304.328 109.362 302.723C109.362 301.117 108.445 299.816 107.314 299.816C106.182 299.816 105.265 301.117 105.265 302.723C105.265 304.328 106.182 305.63 107.314 305.63Z" fill="#3F3D56"/>
<path d="M107.314 301.998C108.445 301.998 109.362 300.696 109.362 299.091C109.362 297.485 108.445 296.184 107.314 296.184C106.182 296.184 105.265 297.485 105.265 299.091C105.265 300.696 106.182 301.998 107.314 301.998Z" fill="#3F3D56"/>
<path d="M107.314 298.366C108.445 298.366 109.362 297.064 109.362 295.459C109.362 293.853 108.445 292.552 107.314 292.552C106.182 292.552 105.265 293.853 105.265 295.459C105.265 297.064 106.182 298.366 107.314 298.366Z" fill="#3F3D56"/>
<path d="M107.314 294.733C108.445 294.733 109.362 293.432 109.362 291.827C109.362 290.221 108.445 288.92 107.314 288.92C106.182 288.92 105.265 290.221 105.265 291.827C105.265 293.432 106.182 294.733 107.314 294.733Z" fill="#3F3D56"/>
<path d="M107.314 291.096C108.445 291.096 109.362 289.794 109.362 288.189C109.362 286.583 108.445 285.282 107.314 285.282C106.182 285.282 105.265 286.583 105.265 288.189C105.265 289.794 106.182 291.096 107.314 291.096Z" fill="#3F3D56"/>
<path d="M110.388 292.552C111.52 292.552 112.437 291.25 112.437 289.645C112.437 288.04 111.52 286.738 110.388 286.738C109.257 286.738 108.34 288.04 108.34 289.645C108.34 291.25 109.257 292.552 110.388 292.552Z" fill="#3F3D56"/>
<path d="M112.437 291.096C113.568 291.096 114.485 289.794 114.485 288.189C114.485 286.583 113.568 285.282 112.437 285.282C111.306 285.282 110.388 286.583 110.388 288.189C110.388 289.794 111.306 291.096 112.437 291.096Z" fill="#3F3D56"/>
<path d="M114.486 289.645C115.617 289.645 116.534 288.344 116.534 286.738C116.534 285.133 115.617 283.831 114.486 283.831C113.354 283.831 112.437 285.133 112.437 286.738C112.437 288.344 113.354 289.645 114.486 289.645Z" fill="#3F3D56"/>
<path d="M107.314 287.464C108.445 287.464 109.362 286.162 109.362 284.557C109.362 282.951 108.445 281.65 107.314 281.65C106.182 281.65 105.265 282.951 105.265 284.557C105.265 286.162 106.182 287.464 107.314 287.464Z" fill="#3F3D56"/>
<path d="M107.314 283.832C108.445 283.832 109.362 282.53 109.362 280.925C109.362 279.319 108.445 278.018 107.314 278.018C106.182 278.018 105.265 279.319 105.265 280.925C105.265 282.53 106.182 283.832 107.314 283.832Z" fill="#3F3D56"/>
<path d="M107.314 280.199C108.445 280.199 109.362 278.898 109.362 277.293C109.362 275.687 108.445 274.386 107.314 274.386C106.182 274.386 105.265 275.687 105.265 277.293C105.265 278.898 106.182 280.199 107.314 280.199Z" fill="#3F3D56"/>
<path d="M107.314 276.567C108.445 276.567 109.362 275.266 109.362 273.661C109.362 272.055 108.445 270.754 107.314 270.754C106.182 270.754 105.265 272.055 105.265 273.661C105.265 275.266 106.182 276.567 107.314 276.567Z" fill="#3F3D56"/>
<path d="M115.821 264.285C115.31 264.39 114.799 264.466 114.288 264.513C114.763 263.925 115.204 263.283 115.606 262.595C115.323 261.373 114.905 260.223 114.37 259.185C113.862 259.59 113.301 259.841 112.721 259.922C112.214 260.027 111.703 260.103 111.192 260.156C111.864 259.378 112.49 258.208 113.15 257.232C111.672 255.331 109.779 254.209 107.788 254.053C105.797 253.898 103.829 254.718 102.213 256.376C100.597 258.034 99.4318 260.43 98.9126 263.162C98.3933 265.894 98.5515 268.797 99.3607 271.383C100.17 273.969 101.581 276.082 103.357 277.368C105.133 278.654 107.167 279.035 109.118 278.446C111.068 277.858 112.817 276.336 114.071 274.136C115.325 271.936 116.009 269.191 116.006 266.361C116.006 265.65 115.962 264.939 115.874 264.238L115.821 264.285Z" fill="#868B8E"/>
<path d="M122.651 278.726C122.128 279.182 121.539 279.46 120.928 279.539C120.421 279.644 119.91 279.726 119.399 279.773C119.942 279.081 120.449 278.334 120.915 277.538C119.68 277.081 118.37 277.295 117.239 278.136C116.109 278.978 115.241 280.387 114.804 282.089C114.367 283.791 114.393 285.662 114.877 287.338C115.362 289.014 116.269 290.373 117.422 291.151C118.575 291.928 119.89 292.067 121.112 291.541C122.333 291.014 123.372 289.861 124.026 288.305C124.679 286.75 124.901 284.904 124.646 283.129C124.392 281.354 123.681 279.778 122.651 278.708V278.726Z" fill="#868B8E"/>
<path d="M104.243 292.552C105.374 292.552 106.291 291.25 106.291 289.645C106.291 288.04 105.374 286.738 104.243 286.738C103.111 286.738 102.194 288.04 102.194 289.645C102.194 291.25 103.111 292.552 104.243 292.552Z" fill="#3F3D56"/>
<path d="M102.194 291.096C103.326 291.096 104.243 289.794 104.243 288.189C104.243 286.583 103.326 285.282 102.194 285.282C101.063 285.282 100.146 286.583 100.146 288.189C100.146 289.794 101.063 291.096 102.194 291.096Z" fill="#3F3D56"/>
<path d="M100.146 289.645C101.277 289.645 102.194 288.344 102.194 286.738C102.194 285.133 101.277 283.831 100.146 283.831C99.0146 283.831 98.0974 285.133 98.0974 286.738C98.0974 288.344 99.0146 289.645 100.146 289.645Z" fill="#3F3D56"/>
<path d="M91.9807 278.726C92.5031 279.182 93.0927 279.46 93.7036 279.539C94.2105 279.644 94.7216 279.726 95.2327 279.773C94.6885 279.083 94.1815 278.336 93.7159 277.538C94.951 277.081 96.2618 277.295 97.392 278.136C98.5222 278.978 99.3906 280.387 99.8274 282.089C100.264 283.791 100.238 285.662 99.7539 287.338C99.2698 289.014 98.3626 290.373 97.2097 291.151C96.0568 291.928 94.7411 292.067 93.5198 291.541C92.2985 291.014 91.2594 289.861 90.6057 288.305C89.952 286.75 89.7306 284.904 89.9849 283.129C90.2392 281.354 90.9508 279.778 91.9807 278.708V278.726Z" fill="#868B8E"/>
<path d="M105.842 307.057H110.834C113.567 307.057 116.188 308.597 118.12 311.339C120.052 314.081 121.138 317.801 121.138 321.678V340.903C121.138 341.561 120.954 342.192 120.626 342.657C120.299 343.122 119.854 343.383 119.39 343.383H97.2733C96.8098 343.383 96.3652 343.122 96.0375 342.657C95.7098 342.192 95.5256 341.561 95.5256 340.903V321.678C95.5256 319.757 95.7926 317.854 96.3112 316.079C96.8298 314.304 97.5899 312.691 98.5481 311.333C99.5062 309.975 100.644 308.898 101.895 308.165C103.147 307.431 104.488 307.054 105.842 307.057Z" fill="#3F3D56"/>
<g opacity="0.1">
<path opacity="0.1" d="M115.961 265.081C115.754 265.395 115.533 265.692 115.302 265.97C115.536 265.97 115.767 265.917 116.002 265.882C115.994 265.613 115.982 265.344 115.961 265.081Z" fill="black"/>
<path opacity="0.1" d="M112.227 261.606C112.742 261.56 113.249 261.484 113.76 261.378C114.219 261.296 114.667 261.123 115.091 260.864C114.883 260.279 114.643 259.718 114.374 259.185C114.118 259.407 113.84 259.574 113.55 259.682C113.146 260.373 112.703 261.016 112.227 261.606Z" fill="black"/>
<path opacity="0.1" d="M99.6349 267.847C99.6319 265.63 100.05 263.452 100.846 261.544C101.642 259.636 102.786 258.067 104.157 257.004C105.528 255.94 107.076 255.422 108.638 255.502C110.2 255.582 111.717 256.258 113.031 257.46L113.162 257.261C112.305 256.179 111.306 255.348 110.221 254.816C109.136 254.284 107.989 254.063 106.843 254.163C105.698 254.264 104.578 254.685 103.548 255.403C102.518 256.121 101.599 257.12 100.842 258.345C100.086 259.569 99.5074 260.994 99.1407 262.536C98.774 264.079 98.626 265.71 98.7054 267.334C98.7847 268.958 99.0898 270.544 99.6031 272C100.116 273.457 100.828 274.754 101.696 275.819C100.363 273.594 99.6321 270.767 99.6349 267.847Z" fill="black"/>
</g>
<g opacity="0.1">
<path opacity="0.1" d="M119.399 281.223C119.91 281.176 120.421 281.1 120.928 280.995C121.539 280.914 122.129 280.634 122.651 280.176C123.229 280.781 123.712 281.552 124.067 282.438C124.422 283.325 124.642 284.308 124.712 285.323C124.732 285.068 124.741 284.813 124.74 284.557C124.744 283.421 124.56 282.299 124.202 281.283C123.844 280.267 123.322 279.385 122.68 278.708C122.157 279.164 121.568 279.442 120.957 279.521L120.545 279.597C120.193 280.18 119.81 280.724 119.399 281.223Z" fill="black"/>
<path opacity="0.1" d="M119.605 278.743C119.776 278.746 119.946 278.764 120.116 278.796C120.384 278.392 120.648 277.959 120.915 277.538C120.158 277.251 119.364 277.215 118.594 277.433C117.825 277.652 117.102 278.118 116.48 278.797C115.859 279.475 115.355 280.348 115.009 281.347C114.664 282.345 114.484 283.444 114.486 284.557C114.486 284.802 114.486 285.042 114.51 285.282C114.637 283.49 115.229 281.828 116.17 280.62C117.111 279.412 118.335 278.743 119.605 278.743Z" fill="black"/>
</g>
<g opacity="0.1">
<path opacity="0.1" d="M95.2327 281.223C94.7216 281.176 94.2105 281.1 93.7035 280.995C93.0924 280.914 92.5027 280.634 91.9806 280.176C91.4019 280.781 90.9194 281.552 90.5643 282.438C90.2093 283.325 89.9897 284.308 89.9198 285.323C89.8998 285.068 89.8902 284.813 89.8909 284.557C89.887 283.421 90.0716 282.299 90.4296 281.283C90.7876 280.267 91.309 279.385 91.9518 278.708C92.4742 279.164 93.0639 279.442 93.6747 279.521L94.0869 279.597C94.4364 280.183 94.8196 280.727 95.2327 281.223Z" fill="black"/>
<path opacity="0.1" d="M95.0265 278.743C94.8542 278.746 94.6822 278.764 94.5113 278.796C94.2475 278.392 93.9837 277.959 93.7158 277.538C94.4736 277.251 95.2677 277.215 96.0368 277.433C96.8059 277.652 97.5293 278.118 98.151 278.797C98.7727 279.475 99.2759 280.348 99.6218 281.347C99.9677 282.345 100.147 283.444 100.146 284.557C100.146 284.802 100.146 285.042 100.121 285.282C99.9943 283.49 99.4028 281.828 98.4614 280.62C97.5201 279.412 96.2959 278.743 95.0265 278.743Z" fill="black"/>
</g>
<path d="M81.1364 350.413H40.867C40.4134 350.413 39.9783 350.157 39.6575 349.702C39.3367 349.247 39.1565 348.63 39.1565 347.986V320.941C39.1564 320.532 39.2294 320.129 39.3686 319.77C39.5079 319.411 39.7088 319.108 39.9528 318.889C40.1968 318.67 40.4758 318.543 40.7639 318.518C41.0521 318.493 41.3399 318.573 41.6007 318.748C53.1704 326.539 65.6345 329.212 80.345 318.871C80.6058 318.689 80.895 318.603 81.1854 318.623C81.4758 318.643 81.7579 318.767 82.0052 318.984C82.2525 319.201 82.4569 319.503 82.5991 319.863C82.7413 320.223 82.8166 320.628 82.8181 321.041V347.945C82.8219 348.264 82.7814 348.58 82.699 348.877C82.6165 349.173 82.4937 349.444 82.3376 349.673C82.1814 349.902 81.9949 350.086 81.7888 350.213C81.5828 350.34 81.3611 350.408 81.1364 350.413Z" fill="#868B8E"/>
<path opacity="0.1" d="M81.1364 350.413H40.867C40.4134 350.413 39.9783 350.157 39.6575 349.702C39.3367 349.247 39.1565 348.63 39.1565 347.986V320.941C39.1564 320.532 39.2294 320.129 39.3686 319.77C39.5079 319.411 39.7088 319.108 39.9528 318.889C40.1968 318.67 40.4758 318.543 40.7639 318.518C41.0521 318.493 41.3399 318.573 41.6007 318.748C53.1704 326.539 65.6345 329.212 80.345 318.871C80.6058 318.689 80.895 318.603 81.1854 318.623C81.4758 318.643 81.7579 318.767 82.0052 318.984C82.2525 319.201 82.4569 319.503 82.5991 319.863C82.7413 320.223 82.8166 320.628 82.8181 321.041V347.945C82.8219 348.264 82.7814 348.58 82.699 348.877C82.6165 349.173 82.4937 349.444 82.3376 349.673C82.1814 349.902 81.9949 350.086 81.7888 350.213C81.5828 350.34 81.3611 350.408 81.1364 350.413Z" fill="black"/>
<path d="M60.7215 329.855C62.0372 329.855 63.1038 327.873 63.1038 325.427C63.1038 322.982 62.0372 321 60.7215 321C59.4057 321 58.3391 322.982 58.3391 325.427C58.3391 327.873 59.4057 329.855 60.7215 329.855Z" fill="#3F3D56"/>
<path d="M60.7215 324.445C62.0372 324.445 63.1038 322.463 63.1038 320.017C63.1038 317.572 62.0372 315.59 60.7215 315.59C59.4057 315.59 58.3391 317.572 58.3391 320.017C58.3391 322.463 59.4057 324.445 60.7215 324.445Z" fill="#3F3D56"/>
<path d="M60.7215 319.029C62.0372 319.029 63.1038 317.047 63.1038 314.602C63.1038 312.156 62.0372 310.174 60.7215 310.174C59.4057 310.174 58.3391 312.156 58.3391 314.602C58.3391 317.047 59.4057 319.029 60.7215 319.029Z" fill="#3F3D56"/>
<path d="M60.7215 313.619C62.0372 313.619 63.1038 311.637 63.1038 309.192C63.1038 306.746 62.0372 304.764 60.7215 304.764C59.4057 304.764 58.3391 306.746 58.3391 309.192C58.3391 311.637 59.4057 313.619 60.7215 313.619Z" fill="#3F3D56"/>
<path d="M60.7215 308.203C62.0372 308.203 63.1038 306.221 63.1038 303.776C63.1038 301.33 62.0372 299.348 60.7215 299.348C59.4057 299.348 58.3391 301.33 58.3391 303.776C58.3391 306.221 59.4057 308.203 60.7215 308.203Z" fill="#3F3D56"/>
<path d="M60.7215 302.787C62.0372 302.787 63.1038 300.805 63.1038 298.36C63.1038 295.914 62.0372 293.932 60.7215 293.932C59.4057 293.932 58.3391 295.914 58.3391 298.36C58.3391 300.805 59.4057 302.787 60.7215 302.787Z" fill="#3F3D56"/>
<path d="M60.7215 297.377C62.0372 297.377 63.1038 295.395 63.1038 292.95C63.1038 290.504 62.0372 288.522 60.7215 288.522C59.4057 288.522 58.3391 290.504 58.3391 292.95C58.3391 295.395 59.4057 297.377 60.7215 297.377Z" fill="#3F3D56"/>
<path d="M69.6573 255.904C69.9808 255.314 70.2768 254.695 70.5435 254.05L64.2784 252.588L71.0546 252.658C71.7083 250.648 72.065 248.469 72.1026 246.256C72.1401 244.043 71.8578 241.843 71.273 239.791L62.1846 246.482L70.5682 237.709C69.7832 235.782 68.7271 234.106 67.4655 232.784C66.204 231.462 64.7642 230.523 63.2357 230.025C61.7073 229.528 60.1229 229.482 58.5815 229.891C57.04 230.3 55.5744 231.155 54.276 232.403C52.9776 233.651 51.8742 235.265 51.0346 237.144C50.1949 239.023 49.637 241.128 49.3956 243.327C49.1543 245.526 49.2345 247.771 49.6315 249.924C50.0285 252.077 50.7336 254.09 51.703 255.84C51.1937 256.753 50.7569 257.744 50.4005 258.793L58.5286 264.852L49.873 260.7C49.2663 263.252 49.117 265.979 49.4387 268.634C49.7603 271.289 50.5428 273.788 51.7154 275.906C50.3903 278.297 49.566 281.168 49.3367 284.192C49.1075 287.216 49.4825 290.271 50.4189 293.007C51.3554 295.743 52.8155 298.049 54.6322 299.663C56.449 301.277 58.5491 302.133 60.6925 302.133C62.8359 302.133 64.936 301.277 66.7528 299.663C68.5696 298.049 70.0297 295.743 70.9661 293.007C71.9026 290.271 72.2776 287.216 72.0483 284.192C71.8191 281.168 70.9948 278.297 69.6697 275.906C71.2528 273.05 72.1135 269.522 72.1135 265.888C72.1135 262.254 71.2528 258.725 69.6697 255.869L69.6573 255.904Z" fill="#868B8E"/>
<path opacity="0.1" d="M49.2507 265.923C49.247 269.558 50.1082 273.088 51.6949 275.942C50.3698 278.332 49.5455 281.204 49.3163 284.228C49.087 287.252 49.462 290.306 50.3985 293.042C51.3349 295.778 52.795 298.084 54.6118 299.698C56.4286 301.312 58.5287 302.168 60.6721 302.168C62.8155 302.168 64.9156 301.312 66.7324 299.698C68.5491 298.084 70.0092 295.778 70.9457 293.042C71.8821 290.306 72.2572 287.252 72.0279 284.228C71.7986 281.204 70.9743 278.332 69.6492 275.942C71.1784 273.187 49.2507 264.104 49.2507 265.923Z" fill="black"/>
<path d="M81.1364 351.846H40.867C40.4134 351.846 39.9783 351.59 39.6575 351.135C39.3367 350.68 39.1565 350.063 39.1565 349.419V320.941C39.1564 320.532 39.2294 320.129 39.3686 319.77C39.5079 319.411 39.7088 319.108 39.9528 318.889C40.1968 318.67 40.4758 318.543 40.7639 318.518C41.0521 318.493 41.3399 318.573 41.6007 318.748C53.1704 326.539 62.3454 335.622 80.345 318.871C81.4126 317.877 82.8181 319.234 82.8181 321.041V349.407C82.8203 350.046 82.645 350.66 82.3302 351.117C82.0154 351.573 81.5865 351.835 81.1364 351.846Z" fill="#868B8E"/>
<path d="M379.954 343.792L320.544 354.946L317.572 355.501L288.526 333.487V328.334L379.295 314.286L379.954 343.792Z" fill="#9C9CA1"/>
<path d="M305.359 335.826L369.72 325.059L369.06 341.921L318.928 347.138L305.359 335.826Z" fill="#939498"/>
<path opacity="0.4" d="M320.544 349.407V354.94L317.572 355.525L288.522 333.487V328.334L316.249 349.39C316.249 349.39 319.884 349.875 320.544 349.407Z" fill="black"/>
<path d="M331.948 261.589L318.61 349.349C318.476 350.227 318.492 351.139 318.659 352.007C318.825 352.874 319.136 353.672 319.565 354.334C319.994 354.995 320.529 355.5 321.125 355.806C321.721 356.112 322.36 356.21 322.988 356.092L407.372 340.242C408.107 340.105 408.8 339.676 409.372 339.006C409.943 338.336 410.37 337.451 410.604 336.452L428.809 258.548C429.01 257.683 429.06 256.762 428.955 255.864C428.85 254.966 428.592 254.118 428.204 253.393C427.816 252.668 427.31 252.087 426.729 251.702C426.148 251.316 425.51 251.136 424.869 251.178L335.625 257.191C334.757 257.249 333.926 257.711 333.262 258.506C332.597 259.301 332.136 260.385 331.948 261.589Z" fill="#3F3D56"/>
<path d="M378.316 293.965C378.523 291.17 377.665 288.752 376.399 288.563C375.134 288.374 373.94 290.487 373.733 293.282C373.526 296.076 374.384 298.495 375.65 298.684C376.915 298.873 378.109 296.76 378.316 293.965Z" fill="white"/>
<path d="M249.092 132.345C271.797 132.345 290.204 110.493 290.204 83.5371C290.204 56.5811 271.797 34.7289 249.092 34.7289C226.386 34.7289 207.979 56.5811 207.979 83.5371C207.979 110.493 226.386 132.345 249.092 132.345Z" fill="#2F2E41"/>
<path d="M247.883 137.038C265.914 137.038 280.531 120.019 280.531 99.0243C280.531 78.0297 265.914 61.0102 247.883 61.0102C229.852 61.0102 215.235 78.0297 215.235 99.0243C215.235 120.019 229.852 137.038 247.883 137.038Z" fill="#FFB8B8"/>
<path d="M251.844 42.9974C257.589 42.9974 262.247 37.5744 262.247 30.8849C262.247 24.1954 257.589 18.7724 251.844 18.7724C246.099 18.7724 241.441 24.1954 241.441 30.8849C241.441 37.5744 246.099 42.9974 251.844 42.9974Z" fill="#2F2E41"/>
<path d="M251.382 34.7289C251.382 34.7289 240.697 57.6488 215.851 66.2289C191.005 74.809 215.648 122.959 215.648 122.959C215.648 122.959 206.687 105.45 219.612 86.9073C232.537 68.3647 253.337 55.6875 251.382 34.7289Z" fill="#2F2E41"/>
</g>
<defs>
<clipPath id="clip0">
<rect width="474" height="367" fill="white"/>
</clipPath>
</defs>
</svg>
