<svg width="162" height="160" viewBox="0 0 162 160" fill="none" xmlns="http://www.w3.org/2000/svg">
<path d="M121.5 106.667C143.868 106.667 162 94.7276 162 80C162 65.2724 143.868 53.3334 121.5 53.3334C99.1325 53.3334 81 65.2724 81 80C81 94.7276 99.1325 106.667 121.5 106.667Z" fill="#19BCFE"/>
<path fill-rule="evenodd" clip-rule="evenodd" d="M40.5 160C51.2413 160 61.5426 157.19 69.1378 152.189C76.7331 147.188 81 140.406 81 133.333V106.667H40.5C29.7587 106.667 19.4574 109.476 11.8622 114.477C4.26695 119.478 0 126.261 0 133.333C0 140.406 4.26695 147.188 11.8622 152.189C19.4574 157.19 29.7587 160 40.5 160Z" fill="#09CF83"/>
<path fill-rule="evenodd" clip-rule="evenodd" d="M40.5 106.667H81V53.3334H40.5C29.7587 53.3334 19.4574 56.1429 11.8622 61.1439C4.26695 66.1448 0 72.9276 0 80C0 87.0725 4.26695 93.8553 11.8622 98.8562C19.4574 103.857 29.7587 106.667 40.5 106.667Z" fill="#A259FF"/>
<path fill-rule="evenodd" clip-rule="evenodd" d="M40.5 53.3333H81V0H40.5C29.7587 0 19.4574 2.80952 11.8622 7.81049C4.26695 12.8115 0 19.5942 0 26.6667C0 33.7391 4.26695 40.5219 11.8622 45.5229C19.4574 50.5238 29.7587 53.3333 40.5 53.3333Z" fill="#F24E1E"/>
<path fill-rule="evenodd" clip-rule="evenodd" d="M121.5 53.3333H81V0H121.5C132.241 0 142.543 2.80952 150.138 7.81049C157.733 12.8115 162 19.5942 162 26.6667C162 33.7391 157.733 40.5219 150.138 45.5229C142.543 50.5238 132.241 53.3333 121.5 53.3333Z" fill="#FF7262"/>
</svg>
