<svg width="162" height="160" viewBox="0 0 162 160" fill="none" xmlns="http://www.w3.org/2000/svg">
<path d="M158.945 72.8724L88.2142 3.0174C84.1433 -1.0058 77.5368 -1.0058 73.4608 3.0174L58.7732 17.5239L77.4051 35.9261C81.7348 34.4811 86.6999 35.4505 90.1513 38.8593C93.6191 42.29 94.5936 47.2357 93.0951 51.5258L111.051 69.2611C115.395 67.783 120.408 68.7392 123.878 72.1718C128.727 76.9594 128.727 84.7189 123.878 89.5096C119.027 94.301 111.171 94.301 106.318 89.5096C102.67 85.9033 101.769 80.6126 103.616 76.1744L86.8701 59.6353L86.8682 103.159C88.0821 103.752 89.1908 104.535 90.1513 105.478C95.0005 110.266 95.0005 118.026 90.1513 122.82C85.3008 127.609 77.4406 127.609 72.597 122.82C67.7478 118.026 67.7478 110.266 72.597 105.479C73.7591 104.33 75.1402 103.421 76.6603 102.803V58.8734C75.1379 58.2596 73.7561 57.3497 72.597 56.1978C68.9229 52.5739 68.0395 47.2495 69.9221 42.7938L51.5553 24.6516L3.05649 72.5493C-1.01883 76.5763 -1.01883 83.102 3.05649 87.1258L73.7886 156.982C77.8608 161.006 84.4661 161.006 88.5433 156.982L158.944 87.4502C163.019 83.4251 163.019 76.8956 158.944 72.8724" fill="#DE4C36"/>
</svg>
