<svg width="165" height="146" viewBox="0 0 165 146" fill="none" xmlns="http://www.w3.org/2000/svg">
<path d="M0 0L14.8426 131.014L82.4888 146L149.865 131.014L165 0H0ZM133.808 31.0776L132.729 39.3603L132.346 42.7822H53.3208L55.1649 59.3125H130.525L129.783 63.5767L125.015 106.078L124.633 108.921L82.5787 117.976V118.028H82.3088L82.2414 118.046V118.028H82.2189L39.8051 108.903L37.2414 83.5288H57.7286L59.1904 96.374L82.2189 101.235H82.3088L105.247 96.3916L107.811 75.5796H82.2414V75.562H36.1619L31.0345 31.0776L30.6522 26.8135H134.168L133.808 31.0776Z" fill="#FF3D00"/>
<path d="M0 0L14.8426 131.014L82.4888 146L149.865 131.014L165 0H0ZM133.808 31.0776L132.729 39.3603L132.346 42.7822H53.3208L55.1649 59.3125H130.525L129.783 63.5767L125.015 106.078L124.633 108.921L82.5787 117.976V118.028H82.3088L82.2414 118.046V118.028H82.2189L39.8051 108.903L37.2414 83.5288H57.7286L59.1904 96.374L82.2189 101.235H82.3088L105.247 96.3916L107.811 75.5796H82.2414V75.562H36.1619L31.0345 31.0776L30.6522 26.8135H134.168L133.808 31.0776Z" fill="#FF3D00"/>
</svg>
