<svg width="165" height="139" viewBox="0 0 165 139" fill="none" xmlns="http://www.w3.org/2000/svg">
<path d="M0 0H165V139H0V0Z" fill="#F7DF1E"/>
<path d="M43.3849 116.159L56.0113 109.721C58.4476 113.36 60.6635 116.439 65.979 116.439C71.074 116.439 74.287 114.76 74.287 108.229V63.8151H89.7925V108.413C89.7925 121.943 80.3785 128.101 66.6435 128.101C54.2395 128.101 47.0394 122.689 43.3843 116.158" fill="black"/>
<path d="M98.2138 114.759L110.839 108.601C114.163 113.173 118.482 116.532 126.124 116.532C132.549 116.532 136.646 113.826 136.646 110.093C136.646 105.615 132.437 104.029 125.349 101.417L121.473 100.016C110.286 96.0051 102.865 90.9663 102.865 80.3296C102.865 70.5322 111.726 63.0675 125.571 63.0675C135.428 63.0675 142.517 65.9604 147.611 73.518L135.538 80.0499C132.879 76.0379 130.001 74.4519 125.57 74.4519C121.029 74.4519 118.149 76.8779 118.149 80.0499C118.149 83.9685 121.029 85.5556 127.674 87.9816L131.55 89.3809C144.731 94.14 152.151 98.9914 152.151 109.907C152.151 121.665 141.187 128.102 126.456 128.102C112.058 128.102 102.754 122.317 98.2131 114.759" fill="black"/>
</svg>
