<svg width="452" height="396" viewBox="0 0 452 396" fill="none" xmlns="http://www.w3.org/2000/svg">
<ellipse rx="24.0927" ry="22.5" transform="matrix(-1 0 0 1 202.693 22.5)" fill="#3F3D56"/>
<ellipse rx="14.6651" ry="10.5" transform="matrix(-1 0 0 1 240.404 63.5)" fill="#3F3D56" fill-opacity="0.75"/>
<path d="M391.231 123.341C391.231 123.341 375.763 146.762 381.287 153.103C386.812 159.445 339.841 159.603 339.841 159.603C339.841 159.603 346.896 125.533 344.82 117.692L391.231 123.341Z" fill="#FFB8B8"/>
<path d="M366.51 131.829C339.722 131.829 318.006 111.098 318.006 85.5245C318.006 59.9512 339.722 39.2198 366.51 39.2198C393.298 39.2198 415.015 59.9512 415.015 85.5245C415.015 111.098 393.298 131.829 366.51 131.829Z" fill="#2F2E41"/>
<path d="M252.428 336.508V363.959L223.674 358.24L226.07 338.796L252.428 336.508Z" fill="#FFB8B8"/>
<path d="M150.59 341.084L70.3175 353.665L90.6852 382.259C90.6852 382.259 146.996 363.959 161.373 363.959C175.75 363.959 150.59 341.084 150.59 341.084Z" fill="#FFB8B8"/>
<path d="M332.701 286.183C332.701 286.183 272.796 219.845 253.626 223.276C234.457 226.707 226.07 247.295 226.07 247.295L215.287 349.09C215.287 349.09 253.626 352.521 253.626 349.09C253.626 345.659 260.815 272.458 260.815 272.458C260.815 272.458 317.126 391.409 347.078 312.49L332.701 286.183Z" fill="#D0CDE1"/>
<path d="M429.748 330.79C429.748 330.79 428.549 390.711 392.606 394.143C356.663 397.574 317.126 368.534 317.126 368.534L252.429 338.945C252.429 338.945 175.75 377.684 152.986 367.39C152.986 367.39 129.024 343.371 144.6 336.509C160.175 329.646 145.798 336.509 145.798 336.509L238.051 290.758C238.051 290.758 256.023 286.183 287.174 298.764C318.324 311.346 360.258 317.065 360.258 317.065L429.748 330.79Z" fill="#D0CDE1"/>
<path d="M369.842 135.206C349.991 135.206 333.899 119.844 333.899 100.893C333.899 81.9428 349.991 66.5804 369.842 66.5804C389.693 66.5804 405.785 81.9428 405.785 100.893C405.785 119.844 389.693 135.206 369.842 135.206Z" fill="#FFB8B8"/>
<path d="M318.324 196.969L320.72 245.007C320.72 245.007 319.522 307.914 330.305 312.489C335.756 314.8 346.707 319.443 356.831 324.522C364.427 328.319 371.555 332.345 375.533 335.811C376.588 336.667 377.497 337.674 378.229 338.796C383.021 346.802 414.172 345.659 421.361 339.94C428.549 334.221 423.757 346.802 429.747 349.09C435.546 351.309 443.585 333.169 438.661 306.084C438.505 305.181 438.326 304.266 438.134 303.339C432.635 277.09 441.273 214.217 439.943 189.924C439.866 188.068 439.662 186.219 439.332 184.388C435.738 166.088 389.875 128.847 381.296 144.711C370.729 164.292 346.455 146.404 342.286 137.494C318.324 136.35 309.937 163.8 309.937 163.8L318.324 196.969Z" fill="#3F3D56"/>
<path d="M221.278 353.665C221.278 353.665 240.447 360.528 246.438 359.384C252.428 358.24 258.419 362.815 258.419 369.678C258.419 376.54 265.607 392.553 254.825 393.697C244.042 394.84 199.712 392.553 190.127 395.984C190.127 395.984 146.995 397.128 150.59 379.972C154.184 362.815 172.156 363.959 172.156 363.959C172.156 363.959 221.278 361.671 221.278 353.665Z" fill="#2F2E41"/>
<path d="M81.0999 357.096C81.0999 357.096 78.7037 350.234 75.1094 350.234C71.5151 350.234 42.7607 354.809 39.1663 353.665C35.572 352.521 -6.36144 350.234 0.827171 369.678C8.01578 389.122 31.9777 391.409 31.9777 391.409C31.9777 391.409 75.1094 386.834 81.1 387.978C87.0906 389.122 108.656 387.978 105.062 382.259C101.468 376.54 78.7037 366.246 81.0999 357.096Z" fill="#2F2E41"/>
<path d="M190.158 192.81L183.585 218.694C183.511 218.983 183.523 219.285 183.618 219.568L213.434 308.518C213.552 308.87 213.793 309.173 214.117 309.376C214.441 309.58 214.828 309.671 215.213 309.634C215.599 309.598 215.96 309.437 216.236 309.177C216.512 308.918 216.686 308.575 216.73 308.208L220.854 273.556C220.882 273.326 220.857 273.093 220.782 272.873L193.414 192.69C193.3 192.356 193.074 192.066 192.772 191.865C192.469 191.663 192.107 191.562 191.738 191.576C191.37 191.589 191.016 191.717 190.731 191.94C190.446 192.163 190.245 192.468 190.158 192.81Z" fill="#3F3D56"/>
<path d="M192.576 194.996L186.507 217.204L212.805 298.312L218.874 273.208L192.576 194.996Z" fill="white"/>
<path d="M325.075 315.692C324.064 318.589 219.885 314.727 218.874 313.761C217.992 312.552 217.246 311.257 216.649 309.899C215.698 307.967 214.828 306.036 214.828 306.036L218.874 274.771L322.041 271.276C322.041 271.276 324.62 297.771 325.146 309.899C325.325 311.827 325.301 313.768 325.075 315.692Z" fill="#3F3D56"/>
<path opacity="0.1" d="M232.022 279L229.999 306.037H275.514V279H232.022Z" fill="black"/>
<path opacity="0.1" d="M290.685 287.691L290.413 287.639L291.697 299.277H316.983V287.691H290.685Z" fill="black"/>
<path opacity="0.1" d="M325.075 315.692C324.064 318.589 219.885 314.727 218.874 313.761C217.992 312.552 217.246 311.257 216.649 309.899H325.146C325.325 311.827 325.301 313.768 325.075 315.692Z" fill="black"/>
<path d="M358.475 47.8092C351.009 47.8092 344.957 42.0316 344.957 34.9046C344.957 27.7776 351.009 22 358.475 22C365.94 22 371.992 27.7776 371.992 34.9046C371.992 42.0316 365.94 47.8092 358.475 47.8092Z" fill="#2F2E41"/>
<path d="M362.539 48.9512C362.539 48.9512 376.35 70.8815 408.465 79.0911C440.58 87.3007 408.727 133.372 408.727 133.372C408.727 133.372 420.31 116.619 403.604 98.8766C386.897 81.1346 360.012 69.0048 362.539 48.9512Z" fill="#2F2E41"/>
<path opacity="0.1" d="M356.83 324.522C359.79 329.863 363.264 335.41 363.851 337.652C364.247 339.173 368.632 338.293 375.533 335.811C389.371 330.813 413.357 319.364 435.737 307.914C436.769 307.392 437.748 306.779 438.661 306.084C438.505 305.181 438.325 304.266 438.134 303.339C432.634 277.09 441.273 214.217 439.943 189.924L429.747 186.676L409.379 204.976V282.752C409.379 282.752 356.663 310.202 353.068 312.49C351.235 313.656 353.763 318.975 356.83 324.522Z" fill="black"/>
<path d="M312.333 262.164L279.985 278.177C279.985 278.177 260.815 258.733 248.834 273.601C236.853 288.47 283.579 293.045 283.579 293.045C283.579 293.045 324.314 283.895 325.513 271.314C326.711 258.733 312.333 262.164 312.333 262.164Z" fill="#FFB8B8"/>
<path d="M366.248 304.483L347.078 309.058C347.078 309.058 325.512 283.895 302.748 293.046C279.984 302.196 331.503 320.496 331.503 320.496C331.503 320.496 359.059 334.221 369.842 322.783C380.625 311.346 366.248 304.483 366.248 304.483Z" fill="#FFB8B8"/>
<path d="M324.314 153.506C323.116 154.65 309.936 163.8 309.936 163.8C309.936 163.8 306.342 207.263 311.135 216.413C315.927 225.563 319.521 225.563 315.927 230.138C312.333 234.714 307.54 231.282 312.333 239.289C317.125 247.295 321.917 246.151 318.323 249.582C314.729 253.014 315.927 254.157 315.927 254.157L301.55 265.595C301.55 265.595 310.37 279.007 321.535 278.02C332.7 277.033 342.285 225.563 342.285 225.563L324.314 153.506Z" fill="#3F3D56"/>
<path d="M429.747 180.957L440.53 184.388C440.53 184.388 469.285 285.039 435.738 302.196C402.191 319.352 365.05 336.508 363.852 331.933C362.653 327.358 349.474 309.058 353.069 306.771C356.663 304.483 409.379 277.033 409.379 277.033V199.257L429.747 180.957Z" fill="#3F3D56"/>
<path opacity="0.1" d="M413.573 222.704L415.968 277.604L352.469 306.199L411.176 277.604L413.573 222.704Z" fill="black"/>
</svg>
