<svg width="165" height="135" viewBox="0 0 165 135" fill="none" xmlns="http://www.w3.org/2000/svg">
<path d="M82.5 134.6C128.063 134.6 165 104.469 165 67.3C165 30.1312 128.063 0 82.5 0C36.9365 0 0 30.1312 0 67.3C0 104.469 36.9365 134.6 82.5 134.6Z" fill="url(#paint0_radial)"/>
<path d="M82.5 129.6C126.284 129.6 161.777 101.707 161.777 67.3C161.777 32.8927 126.284 5 82.5 5C38.7163 5 3.22266 32.8927 3.22266 67.3C3.22266 101.707 38.7163 129.6 82.5 129.6Z" fill="#6181B6"/>
<path d="M98.5489 87.5001L102.481 56.1001C103.383 49.0001 102.609 43.7001 100.289 40.4001C98.0333 37.2001 94.1661 35.6001 88.4942 35.6001H81.6622L83.5958 20.0001C83.6602 19.4001 83.5958 18.8001 83.3379 18.3001C83.0801 17.8001 82.7579 17.6001 82.3712 17.6001H72.961C72.3165 17.6001 71.8008 18.3001 71.6719 19.2001L67.4825 52.5001C67.0958 48.7001 66.1934 45.5001 64.6465 42.9001C61.8751 38.0001 57.5567 35.5001 51.6915 35.5001H33.5801C32.9356 35.5001 32.42 36.2001 32.2911 37.1001L23.8477 104.7C23.7833 105.3 23.8477 105.9 24.1055 106.4C24.3633 106.9 24.6856 107.1 25.0723 107.1H34.5469C35.1915 107.1 35.7071 106.4 35.836 105.5L37.8985 89.2001H44.9239C48.5977 89.2001 51.7559 88.6001 54.1407 87.4001C56.6544 86.1001 58.9102 84.0001 60.9083 81.1001C62.5196 78.8001 63.8731 76.2001 64.9044 73.4001L63.2286 86.9001C63.1641 87.5001 63.2286 88.1001 63.4864 88.6001C63.7442 89.1001 64.0665 89.3001 64.4532 89.3001H73.8633C74.5079 89.3001 75.0235 88.6001 75.1524 87.7001L79.793 50.7001H86.2383C89.0098 50.7001 89.7833 51.5001 90.0411 51.9001C90.2344 52.2001 90.6211 53.4001 90.17 57.1001L86.4317 87.0001C86.3672 87.6001 86.4317 88.2001 86.6895 88.7001C86.9473 89.2001 87.2696 89.4001 87.6563 89.4001H97.3243C97.9044 89.1001 98.42 88.4001 98.5489 87.5001ZM54.9786 61.5001C54.3985 66.2001 53.3028 69.6001 51.6915 71.5001C50.0801 73.4001 47.4376 74.4001 43.9571 74.4001H39.7676L42.7969 50.2001H48.211C52.2071 50.2001 53.8184 51.5001 54.4629 52.6001C55.3008 54.2001 55.4942 57.3001 54.9786 61.5001Z" fill="white"/>
<path d="M138.768 42.9C135.996 38 131.678 35.5 125.813 35.5H107.572C106.928 35.5 106.412 36.2 106.283 37.1L97.8399 104.6C97.7754 105.2 97.8399 105.8 98.0977 106.3C98.3555 106.8 98.6778 107 99.0645 107H108.539C109.184 107 109.699 106.3 109.828 105.4L111.891 89.1H118.916C122.59 89.1 125.748 88.5 128.133 87.3C130.647 86 132.902 83.9 134.9 81C136.576 78.6 137.994 75.9 139.025 73C140.057 70.1 140.83 66.9 141.281 63.4C142.377 54.7 141.539 47.9 138.768 42.9ZM128.906 61.5C128.326 66.2 127.231 69.6 125.619 71.5C124.008 73.4 121.365 74.4 117.885 74.4H113.695L116.725 50.2H122.139C126.135 50.2 127.746 51.5 128.391 52.6C129.293 54.2 129.486 57.3 128.906 61.5Z" fill="white"/>
<path d="M48.2109 48.2C51.8203 48.2 54.2051 49.2 55.4297 51.3C56.6543 53.4 56.9121 56.9 56.2676 61.9C55.6231 67.1 54.334 70.9 52.4648 73.1C50.5957 75.3 47.7598 76.4 43.957 76.4H38.2207L41.7656 48.2H48.2109ZM25.1367 105H34.6113L36.8672 87.1H44.9883C48.5977 87.1 51.498 86.5 53.8184 85.3C56.1387 84.1 58.2012 82.2 60.1348 79.4C61.7461 77.1 63.0352 74.6 64.002 71.9C64.9688 69.2 65.6777 66.2 66.0645 62.9C67.0957 54.9 66.3223 48.7 63.8086 44.2C61.2949 39.7 57.2988 37.5 51.8203 37.5H33.5801L25.1367 105Z" fill="#000004"/>
<path d="M73.0254 19.6001H82.4355L80.1797 37.5001H88.5586C93.8437 37.5001 97.4531 38.9001 99.4512 41.8001C101.449 44.7001 102.029 49.3001 101.256 55.7001L97.3242 87.1001H87.7852L91.5234 57.2001C91.9746 53.8001 91.7813 51.5001 91.0723 50.3001C90.3633 49.1001 88.752 48.4001 86.3672 48.4001H78.8262L73.9922 87.1001H64.582L73.0254 19.6001Z" fill="#000004"/>
<path d="M122.139 48.2C125.748 48.2 128.133 49.2 129.357 51.3C130.582 53.4 130.84 56.9 130.195 61.9C129.551 67.1 128.262 70.9 126.393 73.1C124.523 75.3 121.688 76.4 117.885 76.4H112.148L115.693 48.2H122.139ZM99.0645 105H108.539L110.795 87.1H118.916C122.525 87.1 125.426 86.5 127.746 85.3C130.066 84.1 132.129 82.2 134.063 79.4C135.674 77.1 136.963 74.6 137.93 71.9C138.896 69.2 139.605 66.2 139.992 62.9C141.023 54.9 140.25 48.7 137.736 44.2C135.223 39.7 131.227 37.5 125.748 37.5H107.508L99.0645 105Z" fill="#000004"/>
<defs>
<radialGradient id="paint0_radial" cx="0" cy="0" r="1" gradientUnits="userSpaceOnUse" gradientTransform="translate(49.5332 23.6675) scale(108.343 168.095)">
<stop stop-color="white"/>
<stop offset="0.5" stop-color="#4C6B97"/>
<stop offset="1" stop-color="#231F20"/>
</radialGradient>
</defs>
</svg>
