<svg width="133" height="112" viewBox="0 0 133 112" fill="none" xmlns="http://www.w3.org/2000/svg">
<path d="M47.8654 17.7587L47.6966 11.3771C47.7013 10.7905 47.887 10.4986 48.2536 10.5016C48.4003 10.5027 48.652 11.1281 49.0086 12.3777C49.3653 13.6272 49.5327 15.6086 49.511 18.3219C49.4892 21.0351 49.4376 22.9048 49.356 23.9308C52.2939 23.3677 54.9362 23.0955 57.2828 23.1144C63.8826 23.1673 69.0019 24.9317 72.6408 28.4077C76.718 32.1071 78.7316 37.0734 78.6816 43.3066L78.6781 43.7466C78.6681 44.9932 78.1497 45.6124 77.1231 45.6042C76.5365 45.5995 75.8783 45.3742 75.1485 44.9283C70.1861 41.8818 65.6238 39.2418 61.4615 37.0083C57.2999 34.7015 53.0247 32.8339 48.636 31.4053C47.381 41.5889 45.3152 52.2793 42.4387 63.4766C38.9638 76.1359 35.3249 86.3737 31.5221 94.1901C32.1082 94.2681 33.0612 94.3124 34.3811 94.323C42.3742 94.3871 50.4937 92.3988 58.7397 88.3581C66.9863 84.2441 73.2257 78.9406 77.4579 72.4477L78.4585 71.1357C78.5312 71.2096 78.5661 71.4299 78.5632 71.7965C78.5602 72.1632 78.447 72.5656 78.2235 73.0039C73.9115 80.3029 66.822 86.4429 56.9551 91.4239C47.605 95.9691 38.4195 98.2789 29.3986 98.3532C24.5639 106.821 20.0933 111.039 15.9868 111.006C15.3268 111.001 14.9986 110.778 15.0021 110.338C15.0056 109.898 15.2277 109.643 15.6682 109.573L17.7617 109.15C21.1443 108.004 24.62 104.402 28.1887 98.3435C20.6374 98.063 14.6776 95.9251 10.3095 91.93C5.94143 87.9348 3.78971 81.904 3.85439 73.8376C3.91965 65.6979 7.14138 57.1801 13.5196 48.2843C19.8984 39.3151 27.2847 32.7375 35.6785 28.5513C33.7003 28.3154 31.6846 28.1893 29.6313 28.1728C27.6514 28.1569 24.8613 28.5746 21.261 29.4257C17.7347 30.2042 14.5348 31.4252 11.6614 33.0889C7.38816 35.548 5.23922 38.3176 5.21453 41.3975C5.21159 41.7641 5.2459 42.0577 5.31747 42.2783L5.31041 43.1583C5.30277 44.1116 4.96896 44.5856 4.30898 44.5803C3.42901 44.5733 2.77373 43.9813 2.34316 42.8045C1.76709 41.4798 1.48259 40.3775 1.48964 39.4975C1.52433 35.171 5.43763 31.8656 13.2295 29.5814C18.9629 27.9406 24.6528 27.1429 30.2993 27.1881C31.8392 27.2005 34.1477 27.4023 37.2246 27.7937C41.3453 26.0667 44.8382 24.8846 47.7034 24.2476C47.7891 22.7082 47.8431 20.5453 47.8654 17.7587ZM9.92271 71.5762C9.8698 78.176 11.6616 83.3605 15.2982 87.1298C18.9324 91.1924 23.974 93.5062 30.423 94.0713C34.5221 85.8906 38.048 76.0185 41.0008 64.4551C43.9536 52.8918 46.0232 41.7247 47.2096 30.9538C44.3562 30.1243 41.2085 29.4023 37.7667 28.7881C29.743 32.5372 23.1692 38.388 18.0453 46.3405C12.7002 54.4379 9.99268 62.8498 9.92271 71.5762ZM74.4217 39.5323C74.935 39.5364 75.1946 39.1718 75.2005 38.4385C75.2064 37.7052 74.9934 36.8235 74.5617 35.7933C72.6815 32.4781 69.6947 29.9974 65.6011 28.3512C61.5075 26.705 57.3341 25.8649 53.0809 25.8308C52.2009 25.8237 50.8804 25.8864 49.1192 26.019L48.7593 29.7562C57.2515 31.5844 65.3305 34.6559 72.9962 38.9709C73.7265 39.3434 74.2017 39.5305 74.4217 39.5323ZM47.4684 26.1158C44.3844 26.6044 41.7389 27.2799 39.5319 28.1422C44.5853 28.9894 47.1853 29.4136 47.332 29.4148C47.4112 28.6821 47.4567 27.5824 47.4684 26.1158Z" fill="#868B8E"/>
<path d="M53.1104 77H44.9307V62.75H32.8135V77H24.5869V42.875H32.8135V56.4219H44.9307V42.875H53.1104V77ZM71.0166 64.9531H66.5635V77H58.3369V42.875H71.7666C75.8135 42.875 78.9775 43.7734 81.2588 45.5703C83.54 47.3672 84.6807 49.9062 84.6807 53.1875C84.6807 55.5625 84.1963 57.5312 83.2275 59.0938C82.2744 60.6562 80.7744 61.9219 78.7275 62.8906L85.8525 76.6484V77H77.04L71.0166 64.9531ZM66.5635 58.6016H71.7666C73.3291 58.6016 74.501 58.1953 75.2822 57.3828C76.0791 56.5547 76.4775 55.4062 76.4775 53.9375C76.4775 52.4688 76.0791 51.3203 75.2822 50.4922C74.4854 49.6484 73.3135 49.2266 71.7666 49.2266H66.5635V58.6016ZM98.415 77H90.2119V42.875H98.415V77ZM121.735 67.9297C121.735 66.7266 121.306 65.7891 120.446 65.1172C119.603 64.4453 118.11 63.75 115.97 63.0312C113.829 62.3125 112.079 61.6172 110.72 60.9453C106.298 58.7734 104.087 55.7891 104.087 51.9922C104.087 50.1016 104.634 48.4375 105.728 47C106.837 45.5469 108.399 44.4219 110.415 43.625C112.431 42.8125 114.696 42.4062 117.212 42.4062C119.665 42.4062 121.86 42.8438 123.798 43.7188C125.751 44.5938 127.267 45.8438 128.345 47.4688C129.423 49.0781 129.962 50.9219 129.962 53H121.759C121.759 51.6094 121.329 50.5312 120.47 49.7656C119.626 49 118.478 48.6172 117.024 48.6172C115.556 48.6172 114.392 48.9453 113.532 49.6016C112.688 50.2422 112.267 51.0625 112.267 52.0625C112.267 52.9375 112.735 53.7344 113.673 54.4531C114.61 55.1562 116.259 55.8906 118.618 56.6562C120.978 57.4062 122.915 58.2188 124.431 59.0938C128.118 61.2188 129.962 64.1484 129.962 67.8828C129.962 70.8672 128.837 73.2109 126.587 74.9141C124.337 76.6172 121.251 77.4688 117.329 77.4688C114.563 77.4688 112.056 76.9766 109.806 75.9922C107.571 74.9922 105.884 73.6328 104.743 71.9141C103.618 70.1797 103.056 68.1875 103.056 65.9375H111.306C111.306 67.7656 111.774 69.1172 112.712 69.9922C113.665 70.8516 115.204 71.2812 117.329 71.2812C118.688 71.2812 119.759 70.9922 120.54 70.4141C121.337 69.8203 121.735 68.9922 121.735 67.9297Z" fill="#868B8E"/>
</svg>
