<svg width="164" height="146" viewBox="0 0 164 146" fill="none" xmlns="http://www.w3.org/2000/svg">
<path d="M134.841 47.2734C133.095 46.6748 131.335 46.1203 129.562 45.6104C129.86 44.3937 130.134 43.1918 130.377 42.011C134.374 22.6205 131.761 6.99917 122.838 1.85587C114.282 -3.07483 100.29 2.06654 86.1596 14.3594C84.7669 15.573 83.4052 16.8217 82.0756 18.1041C81.1855 17.2514 80.2797 16.4151 79.3587 15.5959C64.5487 2.45204 49.7042 -3.08764 40.7905 2.07039C32.2427 7.01646 29.7115 21.7016 33.3093 40.0784C33.6672 41.8984 34.0714 43.7091 34.5214 45.5086C32.4201 46.1054 30.3925 46.7406 28.4521 47.4168C11.0886 53.4681 0 62.9511 0 72.7875C0 82.9467 11.9041 93.1366 29.9889 99.3153C31.4551 99.8142 32.9335 100.276 34.4227 100.702C33.939 102.64 33.5097 104.591 33.135 106.553C29.7051 124.611 32.3836 138.949 40.9084 143.864C49.7131 148.939 64.4911 143.723 78.8802 131.15C80.047 130.128 81.188 129.076 82.3024 127.997C83.7422 129.386 85.2205 130.734 86.7355 132.04C100.674 144.029 114.44 148.87 122.956 143.942C131.753 138.852 134.612 123.449 130.9 104.709C130.608 103.241 130.28 101.78 129.917 100.328C130.955 100.02 131.973 99.704 132.966 99.3749C151.767 93.1488 164 83.0825 164 72.7875C164 62.9152 152.553 53.3682 134.841 47.2734ZM130.763 92.7281C129.866 93.0245 128.946 93.3108 128.008 93.5893C125.933 87.0212 123.132 80.0376 119.704 72.8215C122.975 65.7776 125.668 58.8829 127.686 52.3578C129.363 52.8432 130.991 53.3548 132.561 53.8946C147.737 59.1173 156.994 66.838 156.994 72.7875C156.994 79.1244 146.997 87.351 130.763 92.7281ZM124.028 106.069C125.669 114.355 125.903 121.847 124.816 127.705C123.839 132.968 121.875 136.476 119.446 137.882C114.278 140.872 103.225 136.985 91.3051 126.732C89.8959 125.517 88.5208 124.264 87.1814 122.973C91.8028 117.921 96.4211 112.049 100.929 105.526C108.857 104.823 116.347 103.673 123.14 102.103C123.474 103.453 123.771 104.776 124.028 106.069ZM55.9112 137.365C50.8618 139.147 46.8399 139.198 44.4088 137.797C39.2357 134.815 37.0851 123.302 40.0186 107.86C40.3673 106.035 40.7665 104.22 41.2159 102.417C47.9335 103.903 55.3692 104.971 63.3162 105.615C67.8544 111.997 72.6059 117.864 77.3945 123.001C76.3769 123.985 75.3351 124.944 74.2702 125.877C67.9069 131.437 61.5308 135.381 55.9112 137.365ZM32.2555 92.689C24.2585 89.9566 17.6543 86.4059 13.1277 82.5311C9.05972 79.0495 7.00652 75.5923 7.00652 72.7875C7.00652 66.8182 15.9093 59.2044 30.7583 54.0297C32.5604 53.4022 34.4464 52.8099 36.4035 52.254C38.4561 58.9265 41.148 65.9031 44.3966 72.9579C41.1057 80.117 38.3754 87.205 36.3029 93.9563C34.9436 93.567 33.594 93.1445 32.2555 92.689ZM40.1851 38.733C37.1031 22.9887 39.1499 11.1121 44.3011 8.13131C49.7875 4.95645 61.9196 9.48309 74.7071 20.8327C75.541 21.5744 76.3613 22.3312 77.1678 23.1027C72.4028 28.2172 67.6948 34.0399 63.197 40.3845C55.4839 41.0991 48.1007 42.2466 41.3126 43.7841C40.8944 42.1104 40.5185 40.4264 40.1851 38.7337V38.733ZM110.927 56.1941C109.324 53.4258 107.661 50.6924 105.94 47.9957C111.173 48.6572 116.186 49.5351 120.894 50.6083C119.481 55.1369 117.719 59.871 115.646 64.7249C114.13 61.8502 112.557 59.006 110.927 56.1941ZM82.0788 28.1077C85.3101 31.6072 88.5465 35.514 91.7298 39.7531C85.2723 39.4483 78.804 39.447 72.3464 39.7493C75.5329 35.5492 78.7969 31.6476 82.0788 28.1077ZM53.045 56.2421C51.436 59.0314 49.8923 61.8578 48.4152 64.7191C46.3755 59.8825 44.6298 55.1267 43.2044 50.5341C47.8835 49.4877 52.8733 48.6322 58.0727 47.9829C56.3323 50.6961 54.656 53.4497 53.045 56.2415V56.2421ZM58.2219 98.0904C52.8503 97.491 47.7855 96.6797 43.1077 95.6615C44.5555 90.9869 46.3396 86.1299 48.4236 81.1896C49.9065 84.053 51.4566 86.8811 53.0726 89.6717C54.7344 92.5404 56.4551 95.3503 58.2219 98.0904ZM82.2723 117.96C78.9513 114.38 75.6392 110.418 72.4047 106.157C75.5451 106.28 78.7463 106.343 82 106.343C85.3428 106.343 88.6471 106.268 91.8996 106.123C88.7061 110.461 85.4818 114.428 82.2723 117.96ZM115.712 80.9373C117.904 85.932 119.751 90.7635 121.218 95.358C116.464 96.4427 111.33 97.3162 105.92 97.9648C107.654 95.2181 109.332 92.4371 110.955 89.6236C112.605 86.7638 114.191 83.8676 115.712 80.9373ZM104.886 86.1248C102.402 90.4384 99.7782 94.6702 97.0188 98.8133C92.0204 99.1672 87.0109 99.3429 82 99.3403C76.8961 99.3403 71.9319 99.1815 67.1516 98.8716C64.3202 94.738 61.6462 90.4988 59.1355 86.1632H59.1361C56.6371 81.8505 54.3029 77.4445 52.1385 72.9547C54.2974 68.4638 56.6245 64.0557 59.115 59.7397L59.1143 59.7404C61.6038 55.4233 64.2564 51.2022 67.0664 47.0864C71.9435 46.7176 76.9448 46.5255 81.9994 46.5255H82C87.0776 46.5255 92.0854 46.7195 96.9612 47.0909C99.7428 51.2006 102.378 55.4071 104.863 59.7026C107.362 64.0091 109.72 68.3957 111.933 72.8554C109.743 77.3607 107.392 81.7867 104.886 86.1248ZM119.339 7.92255C124.83 11.0884 126.966 23.8551 123.516 40.5971C123.295 41.6652 123.048 42.7532 122.779 43.8565C115.974 42.2863 108.586 41.119 100.85 40.3935C96.3442 33.9791 91.6747 28.1474 86.9873 23.0989C88.2158 21.9152 89.4735 20.7622 90.7593 19.641C102.867 9.10912 114.183 4.95068 119.339 7.92255ZM82 58.1491C90.0879 58.1491 96.6447 64.7031 96.6447 72.7875C96.6447 80.872 90.0879 87.426 82 87.426C73.9121 87.426 67.3553 80.872 67.3553 72.7875C67.3553 64.7031 73.9121 58.1491 82 58.1491Z" fill="#00D8FF"/>
</svg>
