<svg width="162" height="160" viewBox="0 0 162 160" fill="none" xmlns="http://www.w3.org/2000/svg">
<path d="M139.397 92.095C133.761 92.1333 128.862 93.9208 124.761 96.5633C123.255 92.6383 121.751 89.1417 121.485 86.5767C121.19 83.585 120.836 81.7583 121.19 78.1833C121.544 74.6083 123.138 69.5175 123.108 69.1292C123.079 68.7408 122.754 66.9142 119.508 66.8758C116.262 66.8367 113.459 67.6917 113.134 68.8183C112.81 69.945 112.19 72.51 111.777 75.1517C111.216 79.0383 105.285 92.91 101.892 100.177C100.8 97.3408 99.8559 94.8533 99.649 92.8717C99.3541 89.88 98.9997 88.0533 99.3541 84.4783C99.7085 80.9033 101.302 75.8133 101.272 75.4242C101.242 75.0358 100.918 73.2092 97.6721 73.1708C94.4258 73.1317 91.6224 73.9867 91.2984 75.1133C90.9738 76.2408 90.6194 78.8825 89.941 81.4475C89.262 84.0125 81.3835 107.173 79.318 113.156C78.4833 115.578 77.6077 117.975 76.6918 120.345C76.6918 120.345 76.6621 120.462 76.5735 120.656C76.2858 121.399 75.9909 122.137 75.6888 122.871V122.909C75.2459 123.959 74.7738 124.93 74.5378 124.93C74.3606 124.93 74.0359 122.133 74.5966 118.324C75.7768 110.281 78.5802 97.7683 78.551 97.3408C78.551 97.1075 79.082 94.9317 76.7216 93.8042C74.4194 92.6775 73.5936 94.5425 73.3867 94.5425C73.1804 94.5425 73.0323 95.2033 73.0323 95.2033C73.0323 95.2033 75.6002 81.1367 68.1343 81.1367C63.4724 81.1367 57.0392 87.8592 53.8524 93.9208C50.2296 96.517 46.6099 99.1206 42.9933 101.732C41.2531 103.014 39.4527 104.297 37.7707 105.501C37.6524 105.346 37.5347 105.151 37.4163 104.996C28.3867 92.2892 11.6856 83.3125 12.3937 66.2542C12.6594 60.0367 14.282 43.7158 44.469 23.8983C69.3145 7.77167 89.0855 12.24 92.5084 22.1492C97.4063 36.2942 81.9151 62.5625 56.2425 66.37C46.4459 67.8083 41.3113 62.8342 40.0134 60.9692C38.656 59.0258 38.4491 58.9092 37.9473 59.2983C37.1214 59.8817 37.6524 61.63 37.9473 62.64C38.7149 65.2817 41.872 69.945 47.2129 72.2383C51.9343 74.2583 63.4129 75.3858 77.3114 68.3133C92.8621 60.3858 105.02 38.3533 101.449 19.8958C97.8784 1.16584 74.272 -5.0125 51.9343 5.44C38.656 11.6583 24.2557 21.45 13.8985 34.1958C1.59346 49.35 -0.354338 62.5233 0.442373 68.0417C3.30522 87.6258 23.8134 100.372 32.0166 109.814C31.6033 110.125 31.2192 110.398 30.8952 110.631C26.7933 113.312 11.154 124.075 7.25903 135.461C2.83314 148.362 7.96778 157.611 11.3609 158.853C21.8953 162.701 32.7247 155.784 38.5377 144.359C44.3507 132.935 43.6426 118.091 40.9576 111.291C40.9278 111.213 40.8987 111.135 40.8392 111.058C41.9017 110.242 42.9933 109.387 44.0558 108.571C46.0086 107.051 47.9862 105.586 49.9872 104.179C48.9835 107.793 48.2457 112.107 47.8919 118.324C47.4489 125.63 49.7207 135.111 52.7013 138.841C54.0296 140.474 55.5932 140.513 56.5969 140.513C60.0786 140.513 61.6429 136.704 63.3838 132.197C65.5081 126.679 67.4262 120.268 67.4262 120.268C67.4262 120.268 65.0361 137.598 71.5281 137.598C73.8885 137.598 76.2786 133.557 77.3411 131.497V131.536C77.3411 131.536 77.4 131.419 77.5183 131.148C77.7543 130.643 77.9018 130.331 77.9018 130.331V130.254C78.8459 128.077 80.9709 123.143 84.128 114.943C88.2002 104.374 92.1249 91.1625 92.1249 91.1625C92.1249 91.1625 92.4792 94.3875 93.6886 99.75C94.3973 102.898 95.8718 106.356 97.0526 109.698C96.1084 111.447 95.518 112.418 95.518 112.418L95.5478 112.457C94.7802 113.778 93.9543 115.215 93.0393 116.615C89.8227 121.666 85.9872 127.457 85.4557 129.127C84.8355 131.108 84.9836 132.547 86.1644 133.713C87.02 134.568 88.5539 134.683 90.1182 134.568C93.0102 134.295 95.0459 133.363 96.049 132.78C97.6133 132.042 99.4427 130.914 101.154 129.243C104.312 126.173 106.229 121.783 106.052 115.993C105.964 112.807 105.167 109.62 104.193 106.628C104.489 106.084 104.754 105.54 105.049 104.996C110.036 95.3975 113.902 84.8667 113.902 84.8667C113.902 84.8667 114.256 88.0917 115.466 93.455C116.056 96.175 117.266 99.1283 118.328 102.003C113.636 107.017 110.744 112.845 109.711 116.653C107.853 123.726 109.298 126.912 112.043 127.65C113.282 128 115.052 127.223 116.351 126.484C118.003 125.785 119.951 124.581 121.81 122.793C124.968 119.723 128.007 115.448 127.829 109.659C127.741 107.017 127.21 104.413 126.472 101.887C130.456 99.7117 135.59 98.5067 142.14 99.5167C156.187 101.693 158.961 113.233 158.429 118.092C157.898 122.948 154.947 125.591 153.974 126.407C153 127.223 152.676 127.495 152.764 128.077C152.882 128.932 153.354 128.894 154.18 128.738C155.331 128.467 161.558 124.813 161.823 115.876C162.266 104.452 154.003 91.9783 139.397 92.095ZM31.0427 140.202C26.3801 146.885 19.8887 149.411 17.0853 147.274C14.0757 144.981 15.2559 135.111 20.9803 128.039C24.462 123.726 28.9474 119.723 31.928 117.275C32.6063 116.731 33.61 115.954 34.8199 114.983C35.0262 114.827 35.1445 114.749 35.1445 114.749L35.8527 114.166C37.9473 124.269 35.9413 133.168 31.0427 140.202ZM64.9772 109.814C63.3541 115.022 59.9609 128.35 57.8954 127.612C56.1248 126.99 55.0326 116.887 57.541 106.9C58.8098 101.887 61.4949 95.9025 63.0592 93.5717C65.5967 89.8408 68.4001 88.5967 69.0785 90.1133C69.9347 92.095 65.9802 106.55 64.9772 109.814ZM92.9804 127.456C92.3014 127.923 91.6528 128.233 91.3573 128C91.151 127.844 91.6528 127.223 91.6528 127.223C91.6528 127.223 95.1643 122.249 96.5508 119.995C97.3481 118.674 98.2916 117.12 99.2953 115.371V115.876C99.2953 121.822 94.9276 125.824 92.9798 127.456H92.9804ZM114.58 120.967C114.078 120.5 114.167 118.946 115.849 114.088C116.498 112.184 118.032 108.998 120.659 105.928C120.954 107.172 121.161 108.377 121.131 109.503C121.101 117.003 117.03 119.801 114.58 120.967Z" fill="#CD6799"/>
</svg>
